<?xml version="1.0" encoding="utf-8"?>
<!-- Generator: Adobe Illustrator 19.2.1, SVG Export Plug-In . SVG Version: 6.00 Build 0)  -->
<svg version="1.1" id="Layer_1" xmlns="http://www.w3.org/2000/svg" xmlns:xlink="http://www.w3.org/1999/xlink" x="0px" y="0px"
	 viewBox="0 0 25 25" enable-background="new 0 0 25 25" xml:space="preserve">
<path d="M22.6010704,15.2776852c-0.0597191-0.0068827-0.118948-0.0103245-0.1776485-0.0103245
	c-0.0322437,0-0.0629444,0.0068445-0.0947971,0.0088387c-0.5987606-0.8624067-1.0837574-1.6749897-1.4802322-2.4348555
	c0.1624737-0.2113781,0.2728939-0.467104,0.3058624-0.7511835c0.0970459-0.8363609-0.5022812-1.5930586-1.338623-1.6900854
	c-0.0069618-0.000782-0.0137653-0.0005083-0.0207272-0.0012121c-0.2288399-0.6791086-0.3768635-1.2842636-0.4720917-1.8111248
	c0.4665775-0.3309307,0.79702-0.8498526,0.8681564-1.4627905c0.1330261-1.1464076-0.6884556-2.1835871-1.8348637-2.3166323
	c-0.081871-0.0095034-0.1630402-0.0141177-0.2435036-0.0141177c-1.0462933,0.0000782-1.9496059,0.7844253-2.0731468,1.8489804
	c-0.0166416,0.1434088-0.018322,0.2850571-0.0063362,0.42346c-1.1483049,0.34411-2.4542141,0.2403178-3.8226757,0.0515833
	c-0.1689072-0.5666728-0.6606102-1.0073404-1.285183-1.0797682c-0.0597372-0.0069222-0.1189461-0.0103245-0.1776466-0.0103245
	c-0.5350351,0.0000782-1.0140476,0.2847443-1.2866096,0.720367C7.6243033,6.5770464,5.76404,6.6950741,4.2391267,7.9833655
	C4.1451702,7.9530177,4.047205,7.9307261,3.9453876,7.9189157C3.8856699,7.9119544,3.826441,7.9085913,3.76774,7.9085913
	C3.0044134,7.9086695,2.3454068,8.480896,2.2552826,9.2574997c-0.0778246,0.6707001,0.2958705,1.2839108,0.8767982,1.553051
	c0.0568824,0.7796545,0.2141743,1.8393211,0.5919561,3.0935106c-0.2272165,0.2328482-0.3861117,0.5357771-0.4265103,0.8839941
	c-0.0970657,0.83636,0.5022624,1.5930195,1.3386233,1.6900845c0.031775,0.0036774,0.0630221,0.0037556,0.0945234,0.005476
	c0.4298344,0.8941612,0.9700317,1.8402596,1.6511927,2.8220615c-0.0363507,0.1041451-0.0652122,0.2120438-0.0784502,0.3261986
	c-0.0970659,0.8363609,0.5022621,1.5930195,1.338623,1.6900864c0.0597177,0.0069218,0.1189466,0.0103245,0.1776471,0.0103245
	c0.7633266,0,1.4223337-0.5723057,1.5124578-1.3489475c0.0178328-0.1536541,0.0050249-0.3024216-0.0212946-0.4470806
	c1.0394478-0.7765656,2.2740049-0.91399,3.6472969-0.8198967c0.2257309,0.4331589,0.6549978,0.7505569,1.1767559,0.8110962
	c0.0597372,0.0069218,0.1189461,0.0103245,0.1776476,0.0103245c0.443737,0,0.8483076-0.1972599,1.1302757-0.5118046
	c2.2140713,0.3280373,4.6419659,0.6349945,6.5905933-0.7670212c0.0707855,0.0188885,0.1412392,0.0387554,0.2161694,0.0474758
	c0.0597363,0.0068836,0.1189461,0.0103245,0.1776466,0.0103245c0.7633266,0,1.4223347-0.5723038,1.5124588-1.3489857
	C24.0367584,16.1314106,23.4374294,15.3747511,22.6010704,15.2776852z M16.994175,6.7539706
	c0.0122414-0.1055913,0.0429211-0.2040648,0.0816383-0.2981582c0.0004501-0.0010953,0.0008984-0.0021901,0.0013695-0.0032854
	c0.1708622-0.411571,0.571228-0.6971755,1.0356541-0.6972146c0.0437813,0,0.0883255,0.0025811,0.1324577,0.0077043
	c0.4488792,0.0520916,0.8032169,0.3636637,0.9377861,0.7663183l0.000021,0.0000782
	c0.0244217,0.0730534,0.0419827,0.1485319,0.0509377,0.2267475c0.0004692,0.0036759,0.0016232,0.0071177,0.0020332,0.0107937
	c0.0084476,0.0807967,0.0099335,0.1632361,0.0001965,0.247201c-0.0063744,0.0548291-0.0188503,0.1072726-0.033535,0.1587777
	c-0.1291351,0.4877925-0.5683365,0.8398805-1.0849113,0.8398805c-0.0439186,0-0.0885601-0.0025816-0.1326923-0.0077047
	c-0.017952-0.0021114-0.0341606-0.0084858-0.0518188-0.0113797L17.9331951,7.99369
	c-0.0774155-0.0127101-0.1513481-0.0329289-0.2220936-0.0602264c-0.0001183-0.0000391-0.0002346-0.0000782-0.0003529-0.0001173
	c-0.0707073-0.0273361-0.1372299-0.0611253-0.1998615-0.1012502c0,0-0.0000191,0-0.0000381,0
	C17.1586819,7.6066394,16.9428082,7.1965151,16.994175,6.7539706z M12.0193815,8.3857069
	c0,0,0.0005865,0.0000782,0.0008802,0.0001564c0.0056505,0.000782,0.011282,0.0014858,0.0169334,0.0022688
	c0.2752609,0.037817,0.5526724,0.0726624,0.8310814,0.1019144c0.0131397,0.0013304,0.0262213,0.0027771,0.039362,0.0041456
	c0.1354504,0.0139227,0.2710562,0.0264759,0.4067802,0.0372305c0.0108328,0.0008602,0.0216465,0.001565,0.0324793,0.0024252
	c0.1371899,0.0105982,0.2744198,0.0195932,0.4115515,0.026124c0.0013885,0.0000782,0.0027962,0.0001955,0.0042038,0.0002346
	c0.1339054,0.0063744,0.2676153,0.0100899,0.4011879,0.0118494c0.0193977,0.0002737,0.0387955,0.0005083,0.0581932,0.0006647
	c0.1316757,0.0010958,0.2631178-0.0000391,0.3941479-0.0041447c0.0124369-0.000392,0.0248337-0.0010958,0.0372505-0.001565
	c0.1279221-0.0045366,0.2554722-0.0117321,0.382514-0.0219002c0.0103245-0.0008602,0.0206881-0.0014076,0.0310125-0.0022678
	c0.1285868-0.0107946,0.2564497-0.0252638,0.3838434-0.0425501c0.0217247-0.0029716,0.0433903-0.0060225,0.0650568-0.0091505
	c0.1272564-0.0184593,0.2539463-0.0397339,0.3796978-0.0653887c0.0108528-0.0022688,0.0215874-0.0049276,0.0324202-0.0071964
	c0.1214895-0.0254192,0.242156-0.0547113,0.3619833-0.0875225c0.0144882-0.0039892,0.0290947-0.0075092,0.0435658-0.0116158
	c0.0693378-0.0195923,0.1375618-0.0437613,0.2062149-0.0661306c0.3299332,0.3798151,0.795435,0.6439495,1.3345947,0.706522
	c0.0691833,0.0080566,0.1375618,0.0107155,0.2057667,0.0119276c0.1070976,0.5532598,0.2654057,1.1731968,0.4973354,1.8560991
	c-0.2414722,0.2358198-0.4099693,0.5494652-0.4519119,0.910861c-0.0207462,0.1787615-0.0038128,0.3520098,0.0345726,0.517827
	c-1.2493992,0.8272877-2.7786531,0.8154774-4.4150639,0.6172781c-0.1078978-0.9428902-0.8501854-1.7227793-1.8335133-1.8368959
	c-0.0394402-0.0045757-0.0782156-0.0044584-0.1173429-0.0068045c-0.2137051-0.8423834-0.3174381-1.5621643-0.3647394-2.1193724
	C11.6685057,8.7907076,11.8714952,8.6106558,12.0193815,8.3857069z M10.5495911,12.9825621
	c0.0660725-0.569293,0.5470018-0.9986191,1.1186609-0.9986582c0.0438004,0,0.0883446,0.0025816,0.1324778,0.0077047
	c0.6181583,0.0717239,1.0626974,0.6329994,0.9909544,1.2511387c-0.0660734,0.5693321-0.5468845,0.9986582-1.1184263,0.9986582
	c-0.0439186,0-0.0885601-0.0025816-0.1326933-0.0077047C10.9224062,14.1619778,10.4778671,13.6007013,10.5495911,12.9825621z
	 M5.2840104,9.6090012c0.0301328-0.2597151-0.0133357-0.5087156-0.1037335-0.7356586
	c0.0028548-0.0022287,0.005651-0.0047312,0.0085058-0.0069218c0.0564327-0.0442696,0.1125917-0.0895567,0.1701975-0.1299944
	C5.4232149,8.6913738,5.4890337,8.6512489,5.5546956,8.610734c0.0576448-0.0355492,0.1148596-0.0723495,0.1735802-0.104497
	c0.0681458-0.0372696,0.1378555-0.0696898,0.2074475-0.1026182C5.9945221,8.3758516,6.0528712,8.3465996,6.1126866,8.321805
	c0.0720367-0.0298786,0.1456766-0.054986,0.219141-0.080719c0.0596199-0.0208054,0.1187119-0.0432529,0.1792703-0.0614777
	c0.076417-0.022995,0.1545153-0.0414543,0.2323985-0.0604601c0.0599132-0.0146265,0.1192007-0.0308952,0.179955-0.0432539
	C7.004385,8.059391,7.0870004,8.0471897,7.1694007,8.0345182C7.2292747,8.0252495,7.288445,8.0142603,7.3490815,8.0069084
	c0.0865264-0.01052,0.1747537-0.0169339,0.262805-0.0238562C7.6702943,7.978477,7.7279587,7.9721804,7.7870116,7.9690518
	c0.0932136-0.0048885,0.1881871-0.0059443,0.2829843-0.0074306c0.0559435-0.0008211,0.111145-0.0033631,0.1676359-0.0030503
	c0.1010942,0.0004692,0.203928,0.0043802,0.3067226,0.0081344C8.5962896,7.9685826,8.6474237,7.9690518,8.699789,7.9717112
	C8.8125172,7.9774208,8.9270449,7.9862595,9.0416899,7.995254c0.0438204,0.0034418,0.0868578,0.0055928,0.1309519,0.0094638
	c0.0422564,0.0036764,0.0856075,0.0089169,0.1281176,0.0129843c0.1323214,0.4111795,0.436698,0.7472725,0.8367329,0.923728
	c0.0469875,0.6354246,0.1612997,1.4567671,0.4045315,2.4145193c-0.3746929,0.2409821-0.6699572,0.5996799-0.8298302,1.0304918
	c-1.5206108-0.0585833-3.0211406,0.1711359-4.2994399,1.183795c-0.133338-0.0575275-0.2734618-0.1032448-0.4251218-0.1208429
	c-0.0167189-0.0019169-0.0330853-0.0014868-0.049726-0.0028944c-0.3134885-1.0686617-0.4543157-1.9736567-0.511785-2.6437693
	C4.8817081,10.5836859,5.2214379,10.1482201,5.2840104,9.6090012z M8.5798063,18.4881287
	c-0.175086-0.1012516-0.3725805-0.1700802-0.5862856-0.1948757c-0.0597377-0.0069218-0.1189466-0.0103245-0.1776476-0.0103245
	c-0.1792507,0.0000401-0.3517361,0.0340633-0.5134668,0.0924129c-0.5571499-0.8257236-1.0098825-1.623642-1.3755603-2.380496
	c0.2123361-0.2291718,0.3606334-0.5212297,0.3994088-0.8553667c0.0246377-0.2123556,0.0035977-0.4191971-0.0540276-0.611804
	c0.9711652-0.7429314,2.1132908-0.9223585,3.3827715-0.8675299c0.217557,0.7997952,0.9010649,1.4268513,1.7747536,1.5282574
	c0.081872,0.0095034,0.1630411,0.0141182,0.2435055,0.0141182c0.1180859,0,0.2339621-0.0113411,0.3474731-0.0305824
	c0.3160114,0.6053896,0.6868124,1.2329922,1.1129513,1.8756523c-0.0947781,0.1152515-0.1693182,0.2467308-0.2274323,0.3880672
	C11.3850908,17.354744,9.875762,17.5404282,8.5798063,18.4881287z M21.0262356,17.3806725
	c-1.463377,0.883173-3.2890301,0.685873-5.2143688,0.4045315c-0.1006641-0.6629562-0.6273489-1.2054615-1.3254833-1.2864532
	c-0.0597172-0.0069218-0.1189461-0.0103245-0.1776466-0.0103245c-0.0005875,0-0.0011539,0.0001564-0.0017405,0.0001564
	c-0.4426622-0.6566601-0.826643-1.2981462-1.1457043-1.9133129c0.1279802-0.1302691,0.2341585-0.281147,0.325182-0.4422712
	c1.8827505,0.2332783,3.8384161,0.268671,5.4686079-0.8621721c0.1559639,0.0788021,0.3253784,0.1366434,0.5090675,0.1579571
	c0.0597172,0.0069218,0.1189461,0.0103245,0.1776485,0.0103245c0.0215874,0,0.0420589-0.0050058,0.0634708-0.0059052
	c0.4039459,0.7711287,0.900322,1.5937233,1.4944878,2.4580851c-0.1521301,0.2064905-0.2571144,0.4520082-0.2887917,0.7250605
	C20.8795605,16.8870125,20.927351,17.1463375,21.0262356,17.3806725z"/>
</svg>
