<?xml version="1.0" encoding="utf-8"?>
<!-- Generator: Adobe Illustrator 19.2.1, SVG Export Plug-In . SVG Version: 6.00 Build 0)  -->
<svg version="1.1" id="Layer_1" xmlns="http://www.w3.org/2000/svg" xmlns:xlink="http://www.w3.org/1999/xlink" x="0px" y="0px"
	 viewBox="0 0 240.5284729 55.6666679" style="enable-background:new 0 0 240.5284729 55.6666679;" xml:space="preserve">
<g>
	<path d="M79.6681213,21.6692715c-1.2294922-0.5625-2.7412109-0.9492188-4.2519531-0.9492188
		c-4.5332031,0-6.2197266,2.1787109-6.2197266,7.5908203c0,5.9033184,2.1435547,8.0820293,6.1494141,8.0820293
		c1.6513672,0,3.1982422-0.421875,4.4628906-1.1943359l0.2460938,2.7402344
		c-1.2304688,0.84375-3.1982422,1.4414062-5.4121094,1.4414062c-5.8681641,0-8.890625-3.3740234-8.890625-11.069334
		c0-7.0634766,2.7412109-10.6484375,8.9960938-10.6484375c1.8623047,0,3.7607422,0.421875,5.1308594,1.0195312
		L79.6681213,21.6692715z"/>
	<path d="M84.4454651,38.9231758v-20.803709l2.6708984-0.1757812l0.2802734,4.4980469h0.0703125
		c1.3007812-3.0214844,3.5849609-4.7792969,6.4306641-4.7792969c0.7734375,0,1.5117188,0.1054688,2.0742188,0.28125
		l-0.2109375,3.3740234c-0.6328125-0.2109375-1.3359375-0.28125-2.0732422-0.28125
		c-3.2685547,0-5.9042969,2.7763672-5.9042969,7.2744141v10.6123028H84.4454651z"/>
	<path d="M106.7931213,39.3802071c-6.3251953,0-9.1367188-3.0927734-9.1367188-10.8583965
		c0-7.7666016,2.8466797-10.8945312,9.1367188-10.8945312c6.3251953,0,8.9960938,3.1279297,8.9960938,10.8945312
		C115.7892151,36.2874336,113.0831604,39.3802071,106.7931213,39.3802071z M106.7931213,36.5686836
		c4.0410156,0,5.5878906-2.0732422,5.5878906-8.0468731c0-6.0097656-1.546875-8.0478516-5.5878906-8.0478516
		c-4.1113281,0-5.6923828,2.0380859-5.6923828,8.0478516C101.1007385,34.5305977,102.6817932,36.5686836,106.7931213,36.5686836z"/>
	<path d="M125.1339417,39.3450508c-2.4951172,0-4.8144531-0.5976562-6.4306641-1.7568359l0.421875-2.8818359
		c1.5810547,1.1943359,3.9707031,1.8271484,5.9736328,1.8271484c3.0576172,0,4.3222656-1.4755859,4.3222656-3.4433594
		c0-4.7441387-10.7177734-2.5302715-10.7177734-9.5937481c0-3.5498047,2.4951172-5.8691406,7.3095703-5.8691406
		c2.0380859,0,3.9707031,0.421875,5.6572266,1.1953125l-0.28125,2.8115234c-1.7568359-0.7382812-3.7597656-1.125-5.4462891-1.125
		c-2.4951172,0-4.0761719,1.0898438-4.0761719,2.8115234c0,4.4628906,10.6474609,2.1435547,10.6474609,9.4531231
		C132.5138245,36.7093086,130.2999573,39.3450508,125.1339417,39.3450508z"/>
	<path d="M141.4728088,39.3450508c-2.4951172,0-4.8144531-0.5976562-6.4306641-1.7568359l0.421875-2.8818359
		c1.5810547,1.1943359,3.9707031,1.8271484,5.9736328,1.8271484c3.0576172,0,4.3222656-1.4755859,4.3222656-3.4433594
		c0-4.7441387-10.7177734-2.5302715-10.7177734-9.5937481c0-3.5498047,2.4951172-5.8691406,7.3095703-5.8691406
		c2.0380859,0,3.9707031,0.421875,5.6572266,1.1953125l-0.28125,2.8115234c-1.7568359-0.7382812-3.7597656-1.125-5.4462891-1.125
		c-2.4951172,0-4.0761719,1.0898438-4.0761719,2.8115234c0,4.4628906,10.6474609,2.1435547,10.6474609,9.4531231
		C148.8526917,36.7093086,146.6388245,39.3450508,141.4728088,39.3450508z"/>
	<path d="M166.1759338,38.9231758l-0.421875-2.1787109l-0.1054688-0.0351562
		c-1.3007812,1.7216797-3.3740234,2.6357422-6.1845703,2.6357422c-5.6582031,0-8.0478516-3.4443359-8.0478516-10.928709
		c0-7.0986328,2.4951172-10.8242188,8.0830078-10.8242188c2.3193359,0,4.4277344,0.8085938,5.9033203,2.3544922l0.0703125-0.0351562
		l-0.0703125-2.8105469v-5.9042978l3.3388672-0.2109375v27.9375H166.1759338z M165.4024963,23.0745449
		c-0.8789062-1.4404297-2.7412109-2.3896484-4.9902344-2.3896484c-4.0761719,0-5.5517578,2.1787109-5.5517578,7.8720703
		c0,5.8681622,1.3349609,8.0117168,5.5166016,8.0117168c2.9169922,0,4.4277344-1.4404297,5.0253906-2.5654297V23.0745449z"/>
	<path d="M181.177887,39.3802071c-6.3251953,0-9.1367188-3.0927734-9.1367188-10.8583965
		c0-7.7666016,2.8466797-10.8945312,9.1367188-10.8945312c6.3251953,0,8.9960938,3.1279297,8.9960938,10.8945312
		C190.1739807,36.2874336,187.467926,39.3802071,181.177887,39.3802071z M181.177887,36.5686836
		c4.0410156,0,5.5878906-2.0732422,5.5878906-8.0468731c0-6.0097656-1.546875-8.0478516-5.5878906-8.0478516
		c-4.1113281,0-5.6923828,2.0380859-5.6923828,8.0478516C175.4855042,34.5305977,177.0665588,36.5686836,181.177887,36.5686836z"/>
	<path d="M206.8634338,21.6692715c-1.2294922-0.5625-2.7412109-0.9492188-4.2519531-0.9492188
		c-4.5332031,0-6.2197266,2.1787109-6.2197266,7.5908203c0,5.9033184,2.1435547,8.0820293,6.1494141,8.0820293
		c1.6513672,0,3.1982422-0.421875,4.4628906-1.1943359l0.2460938,2.7402344
		c-1.2304688,0.84375-3.1982422,1.4414062-5.4121094,1.4414062c-5.8681641,0-8.890625-3.3740234-8.890625-11.069334
		c0-7.0634766,2.7412109-10.6484375,8.9960938-10.6484375c1.8623047,0,3.7607422,0.421875,5.1308594,1.0195312
		L206.8634338,21.6692715z"/>
	<path d="M214.452301,26.2376308h3.1982422l6.1845703-8.2587891h3.9003906l-7.1689453,9.5585938l7.4501953,11.3857403h-3.9003906
		l-6.4306641-9.8749981h-3.2333984v9.8749981h-3.3027344V11.1966143l3.3027344-0.2109375V26.2376308z"/>
</g>
<path d="M55.2637749,33.962719c-0.1334763-0.0153847-0.2658577-0.0230789-0.3970604-0.0230789
	c-0.0720673,0-0.1406822,0.0152969-0.2118797,0.0197563c-1.3382835-1.9275551-2.4222908-3.7437496-3.3084488-5.4421158
	c0.3631439-0.4724483,0.6099434-1.0440197,0.6836281-1.6789627c0.2169075-1.869339-1.1226425-3.5606251-2.9919395-3.7774887
	c-0.0155563-0.0017471-0.0307655-0.0011368-0.0463257-0.0027103c-0.5114784-1.5178661-0.8423233-2.8704395-1.0551643-4.0480213
	c1.0428391-0.7396584,1.7814064-1.8994961,1.940403-3.2694645c0.2973251-2.5623226-1.5387573-4.8805094-4.101078-5.1778765
	c-0.182991-0.0212412-0.3644104-0.0315552-0.5442543-0.0315552c-2.3385544,0.0001745-4.3575401,1.7532597-4.633667,4.1326342
	c-0.0371933,0.3205309-0.0409508,0.6371279-0.0141602,0.9464703c-2.5665627,0.7691154-5.4853821,0.5371304-8.5440178,0.1152925
	c-0.3775196-1.2665634-1.4765205-2.2514935-2.8724937-2.4133759c-0.1335182-0.0154715-0.2658558-0.0230761-0.3970566-0.0230761
	c-1.1958504,0.0001745-2.2664852,0.6364279-2.8756866,1.6100826c-4.1051865-0.3832035-8.2630386-0.119401-11.6713533,2.7600422
	c-0.210001-0.0678291-0.4289627-0.1176529-0.6565332-0.1440506c-0.1334743-0.0155582-0.2658558-0.0230751-0.3970575-0.0230751
	c-1.7061024,0.0001736-3.17904,1.27915-3.380475,3.0149269c-0.1739445,1.499073,0.6612968,2.8696556,1.9597216,3.4712067
	c0.1271372,1.7425957,0.4786978,4.1110439,1.3230734,6.9142666c-0.5078487,0.5204372-0.8629942,1.1975117-0.9532881,1.9758053
	c-0.2169504,1.869339,1.1226006,3.5605392,2.9919405,3.7774887c0.0710201,0.0082169,0.1408596,0.0083923,0.2112684,0.0122375
	c0.9607172,1.9985313,2.1681051,4.1131401,3.6905603,6.3075562c-0.0812473,0.2327728-0.1457558,0.4739342-0.1753426,0.729084
	c-0.2169514,1.869339,1.1225986,3.5605392,2.9919395,3.7774887c0.1334743,0.0154724,0.2658558,0.0230751,0.3970566,0.0230751
	c1.7061024,0,3.1790409-1.2791481,3.380476-3.0150146c0.0398579-0.3434334,0.0112324-0.6759377-0.0475941-0.9992676
	c2.3232574-1.7356873,5.0825996-2.0428467,8.152029-1.8325386c0.504528,0.9681473,1.4639778,1.6775627,2.6301498,1.8128738
	c0.1335182,0.0154724,0.2658577,0.0230751,0.3970604,0.0230751c0.9917908,0,1.8960419-0.4408913,2.5262642-1.1439285
	c4.9486465,0.7331924,10.3752022,1.4192696,14.7305565-1.7143631c0.1582108,0.0422211,0.3156776,0.0866241,0.4831543,0.1061172
	c0.1335182,0.0153847,0.2658577,0.0230751,0.3970604,0.0230751c1.7061005,0,3.179039-1.2791519,3.3804741-3.0151024
	C58.4726639,35.8708687,57.1331139,34.1796684,55.2637749,33.962719z M42.7318726,14.9114666
	c0.027359-0.2360058,0.095932-0.4561033,0.1824684-0.6664104c0.0010033-0.0024471,0.0020103-0.0048943,0.0030594-0.0073423
	c0.3818932-0.9198971,1.2767448-1.5582495,2.3147774-1.5583363c0.0978546,0,0.1974144,0.0057688,0.2960587,0.0172195
	c1.0032845,0.1164293,1.7952576,0.8128204,2.096035,1.7127895l0.000042,0.0001745
	c0.0545883,0.1632805,0.0938339,0.3319817,0.1138535,0.5068007c0.001049,0.0082159,0.0036278,0.0159082,0.0045433,0.0241241
	c0.0188828,0.1805887,0.0222015,0.3648481,0.0004387,0.552516c-0.0142479,0.1225481-0.0421333,0.2397642-0.074955,0.3548822
	c-0.2886276,1.0902586-1.2702789,1.8772058-2.4248695,1.8772058c-0.0981636,0-0.1979408-0.0057678-0.2965813-0.0172195
	c-0.040123-0.0047188-0.0763512-0.0189667-0.115818-0.0254345l-0.0002632-0.0000877
	c-0.173027-0.0284081-0.3382721-0.0735989-0.4963989-0.1346111l-0.0007858-0.0002632
	c-0.1580353-0.0610981-0.3067207-0.1366196-0.4467049-0.2263031h-0.0000877
	C43.0995598,16.817255,42.6170616,15.9005928,42.7318726,14.9114666z M31.612772,18.5585403
	c0,0,0.0013123,0.0001755,0.0019665,0.000349c0.0126324,0.001749,0.025219,0.0033226,0.0378494,0.0050697
	c0.6152306,0.0845261,1.2352715,0.1624069,1.8575401,0.2277908c0.0293694,0.0029716,0.0586052,0.0062046,0.0879784,0.009264
	c0.302742,0.0311184,0.605835,0.0591774,0.9091873,0.0832138c0.0242119,0.0019245,0.0483818,0.0034962,0.0725937,0.0054207
	c0.306633,0.0236874,0.6133537,0.0437908,0.9198532,0.0583897c0.0031052,0.0001736,0.0062523,0.0004368,0.0093994,0.0005245
	c0.2992897,0.014246,0.5981407,0.0225506,0.8966904,0.0264835c0.043354,0.0006123,0.0867081,0.0011368,0.1300621,0.0014858
	c0.2943115,0.002449,0.5880928-0.0000858,0.8809586-0.009264c0.0277977-0.0008755,0.0555038-0.0024471,0.0832558-0.0034962
	c0.2859192-0.0101395,0.571003-0.0262241,0.8549538-0.0489502c0.0230751-0.0019226,0.0462418-0.0031471,0.0693169-0.0050697
	c0.2874031-0.0241241,0.5731888-0.0564671,0.8579254-0.0951023c0.0485535-0.0066414,0.0969772-0.0134602,0.1454048-0.0204525
	c0.2844276-0.0412579,0.5675926-0.0888081,0.8486595-0.1461487c0.0242538-0.0050697,0.0482483-0.0110149,0.0724602-0.0160847
	c0.2715378-0.0568161,0.5412407-0.1222858,0.809063-0.1956215c0.0323868-0.0089169,0.065033-0.0167828,0.097374-0.0259609
	c0.1549759-0.0437927,0.3074646-0.0978107,0.4609108-0.14781c0.7374306,0.8489208,1.7778664,1.4392853,2.9829369,1.5791416
	c0.1546288,0.0180054,0.3074608,0.0239487,0.4599037,0.026659c0.2393723,1.2365818,0.5932045,2.6221981,1.1115875,4.1485424
	c-0.539711,0.5270786-0.9163132,1.2281036-1.0100594,2.0358543c-0.0463715,0.3995495-0.008522,0.7867737,0.0772705,1.1573906
	c-2.7925148,1.8490601-6.2105331,1.8226624-9.8680534,1.3796711c-0.2411613-2.1074429-1.900238-3.850563-4.0980644-4.1056252
	c-0.0881519-0.0102272-0.174818-0.009964-0.2622719-0.0152092c-0.4776497-1.8828011-0.7095032-3.4915714-0.8152237-4.7369823
	C30.8285351,19.4637527,31.2822342,19.0613194,31.612772,18.5585403z M28.3276615,28.8329163
	c0.1476784-1.2724209,1.2225971-2.2320023,2.5003052-2.23209c0.0978985,0,0.1974583,0.0057697,0.2960987,0.0172195
	c1.3816376,0.1603088,2.3752213,1.4148102,2.2148705,2.7964058c-0.1476784,1.2725067-1.2223358,2.2320881-2.4997807,2.2320881
	c-0.0981617,0-0.1979389-0.0057678-0.2965813-0.0172195C29.1609364,31.4690113,28.1673527,30.21451,28.3276615,28.8329163z
	 M16.5586262,21.2927094c0.0673504-0.5804863-0.0298061-1.137022-0.2318535-1.6442604
	c0.006382-0.004982,0.0126305-0.0105762,0.0190125-0.0154705c0.1261311-0.0989475,0.2516518-0.2001686,0.3804054-0.2905502
	c0.1435699-0.1006947,0.2906799-0.1903763,0.4374409-0.2809334c0.1288414-0.0794544,0.2567215-0.1617069,0.3879681-0.2335587
	c0.1523113-0.0833015,0.3081188-0.1557636,0.4636631-0.2293625c0.1314201-0.0620594,0.2618351-0.1274433,0.3955288-0.1828594
	c0.1610069-0.066782,0.3255997-0.1228981,0.4897976-0.1804142c0.1332569-0.0465012,0.2653332-0.096674,0.4006863-0.1374073
	c0.1707973-0.0513973,0.3453541-0.0926552,0.5194302-0.1351357c0.1339111-0.03269,0.2664242-0.0690536,0.402216-0.096674
	c0.1808929-0.0368881,0.3655453-0.0641594,0.5497169-0.0924797c0.1338253-0.0207157,0.2660751-0.0452785,0.4016037-0.0617123
	c0.1933937-0.0235119,0.3905888-0.0378475,0.5873928-0.053318c0.1305447-0.0102272,0.2594299-0.0243015,0.3914185-0.0312939
	c0.2083416-0.0109253,0.4206142-0.0132866,0.6324959-0.0166073c0.1250381-0.0018349,0.2484169-0.0075169,0.3746815-0.0068188
	c0.2259521,0.001049,0.4557953,0.0097904,0.6855526,0.0181828c0.1160793,0.0041943,0.2303677,0.0052433,0.3474083,0.0111885
	c0.2519588,0.0127602,0.5079365,0.0325146,0.7641773,0.0526199c0.0979424,0.0076923,0.1941376,0.0124989,0.2926903,0.0211525
	c0.0944462,0.0082169,0.1913395,0.0199299,0.2863541,0.0290203c0.2957497,0.9190235,0.976059,1.6702213,1.8701706,2.0646133
	c0.1050224,1.420229,0.3605194,3.2560024,0.9041634,5.3966618c-0.837471,0.5386181-1.4974117,1.3403378-1.8547421,2.3032398
	c-3.3987007-0.1309395-6.7525158,0.3825054-9.6096268,2.6458874c-0.2980213-0.1285801-0.6112099-0.2307625-0.9501848-0.2700958
	c-0.0373669-0.0042839-0.0739479-0.0033226-0.1111403-0.0064697c-0.700675-2.3885517-1.0154371-4.4112949-1.1438847-5.9090557
	C15.6594458,23.4712162,16.4187717,22.4979115,16.5586262,21.2927094z M23.9250183,41.13834
	c-0.3913307-0.2263031-0.8327503-0.380146-1.3103981-0.4355621c-0.1335182-0.0154724-0.2658558-0.0230751-0.3970585-0.0230751
	c-0.4006405,0.0000839-0.7861614,0.0761337-1.1476421,0.2065468c-1.2452793-1.8455658-2.2571754-3.6289787-3.0744991-5.3206177
	c0.4745903-0.5122185,0.8060474-1.1649933,0.8927135-1.9118195c0.0550671-0.4746323,0.0080414-0.9369431-0.1207561-1.3674355
	c2.1706409-1.6605167,4.7233906-2.061552,7.560791-1.939003c0.4862595,1.7876091,2.013958,3.1891365,3.9667301,3.4157867
	c0.1829929,0.0212402,0.3644104,0.0315552,0.5442562,0.0315552c0.2639332,0,0.5229263-0.0253487,0.7766323-0.0683517
	c0.7063141,1.353096,1.5350876,2.7558441,2.487545,4.1922455c-0.2118378,0.2575951-0.3784409,0.5514679-0.5083313,0.867363
	C30.1950779,38.6051254,26.8215961,39.0201454,23.9250183,41.13834z M51.7438812,38.6630745
	c-3.2707787,1.9739723-7.3512726,1.5329895-11.6545715,0.9041672c-0.2249908-1.4817657-1.4021797-2.694313-2.9625702-2.8753357
	c-0.1334763-0.0154724-0.2658577-0.0230789-0.3970566-0.0230789c-0.0013123,0-0.0025787,0.000351-0.003891,0.000351
	c-0.9893875-1.4676933-1.8476181-2.9014702-2.5607491-4.2764244c0.2860489-0.2911606,0.523365-0.6283855,0.7268105-0.988512
	c4.2081108,0.5213966,8.5791969,0.6005039,12.2228203-1.9270306c0.348587,0.1761303,0.7272453,0.3054085,1.1378098,0.3530483
	c0.1334724,0.0154705,0.2658539,0.0230751,0.3970566,0.0230751c0.0482521,0,0.0940094-0.0111885,0.1418648-0.0131989
	c0.9028549,1.7235413,2.0122986,3.5621128,3.340313,5.4940357c-0.340023,0.461525-0.5746765,1.0102806-0.6454773,1.620575
	C51.41605,37.5597076,51.5228653,38.1393204,51.7438812,38.6630745z"/>
</svg>
